<svg width="47" height="32" viewBox="0 0 47 32" fill="none" xmlns="http://www.w3.org/2000/svg">
<path d="M30.7736 18.8544L23.2535 6.20698C23.2169 6.14455 23.1645 6.0922 23.1008 6.05625C23.0365 6.01967 22.964 6.00012 22.8902 6.00012C22.8164 6.00012 22.7439 6.01841 22.6796 6.05373C22.6152 6.08905 22.5623 6.14076 22.525 6.20257L20.2729 9.99226C20.1991 10.1165 20.16 10.2571 20.16 10.4003C20.16 10.5435 20.1991 10.6841 20.2729 10.8084L25.1764 19.0588C25.2502 19.183 25.3568 19.2858 25.4842 19.3577C25.6122 19.429 25.7572 19.4668 25.9048 19.4668H30.4091C30.4828 19.4668 30.5554 19.4479 30.6191 19.412C30.6828 19.376 30.7357 19.3243 30.773 19.2625C30.8095 19.2007 30.8291 19.13 30.8297 19.0588C30.8297 18.9875 30.8108 18.9169 30.7736 18.8544Z" fill="#36BEFF"/>
<path d="M11.0574 25.4644L18.5775 12.817C18.6147 12.7552 18.6677 12.7035 18.7314 12.6681C18.7951 12.6322 18.8676 12.6133 18.9414 12.6133C19.0152 12.6133 19.0877 12.6322 19.1514 12.6681C19.2151 12.7041 19.2681 12.7552 19.3053 12.817L21.5587 16.6035C21.6325 16.7278 21.6709 16.8684 21.6709 17.0122C21.6709 17.156 21.6325 17.2966 21.5587 17.4209L16.6552 25.6713C16.5814 25.7955 16.4755 25.8983 16.3481 25.9702C16.2201 26.0421 16.0756 26.0794 15.9281 26.0794H11.4219C11.3475 26.0794 11.275 26.0611 11.2106 26.0251C11.1463 25.9892 11.0927 25.9375 11.0561 25.875C11.0189 25.8126 11 25.7419 11 25.6694C11 25.5975 11.0202 25.5269 11.058 25.4644H11.0574Z" fill="#36BEFF"/>
<path d="M19.3092 26.0761H34.3494C34.4232 26.0761 34.4957 26.0572 34.5594 26.0212C34.6231 25.9853 34.6761 25.9336 34.7133 25.8718C34.7499 25.8093 34.7694 25.7393 34.7694 25.6674C34.7694 25.5955 34.7499 25.5255 34.7127 25.4631L32.4631 21.6746C32.3893 21.5504 32.2833 21.4476 32.1553 21.3757C32.0273 21.3038 31.8822 21.2666 31.7347 21.2666H21.9265C21.7789 21.2666 21.6338 21.3038 21.5058 21.3757C21.3778 21.4476 21.2718 21.5504 21.198 21.6746L18.9459 25.4631C18.9087 25.5249 18.8892 25.5955 18.8892 25.6674C18.8892 25.7393 18.9081 25.8093 18.9453 25.8718C18.9819 25.9336 19.0348 25.9853 19.0992 26.0212C19.1629 26.0572 19.2354 26.0761 19.3092 26.0761Z" fill="#36BEFF"/>
<path d="M4.73609 3.00232V28.9976H7.80182V32H1V0.000971296H7.80182V3.00334L4.73609 3.00232Z" fill="url(#paint0_linear_241_650)"/>
<path d="M45.2181 0.00102174V31.999H38.3999V28.9967H41.482V3.00237H38.3999V0L45.2181 0.00102174Z" fill="url(#paint1_linear_241_650)"/>
<defs>
<linearGradient id="paint0_linear_241_650" x1="1" y1="0" x2="41.8946" y2="41.5562" gradientUnits="userSpaceOnUse">
<stop offset="0.24238" stop-color="#36BEFF"/>
<stop offset="1" stop-color="#733FF1"/>
</linearGradient>
<linearGradient id="paint1_linear_241_650" x1="1" y1="0" x2="41.8946" y2="41.5562" gradientUnits="userSpaceOnUse">
<stop offset="0.24238" stop-color="#36BEFF"/>
<stop offset="1" stop-color="#733FF1"/>
</linearGradient>
</defs>
</svg>
